<svg id="visual" viewBox="0 0 900 600" width="900" height="600" xmlns="http://www.w3.org/2000/svg" xmlns:xlink="http://www.w3.org/1999/xlink" version="1.1"><rect x="0" y="0" width="900" height="600" fill="#002233"></rect><path d="M0 430L21.5 435.7C43 441.3 86 452.7 128.8 457C171.7 461.3 214.3 458.7 257.2 450.5C300 442.3 343 428.7 385.8 424.5C428.7 420.3 471.3 425.7 514.2 434.2C557 442.7 600 454.3 642.8 464C685.7 473.7 728.3 481.3 771.2 477.3C814 473.3 857 457.7 878.5 449.8L900 442L900 601L878.5 601C857 601 814 601 771.2 601C728.3 601 685.7 601 642.8 601C600 601 557 601 514.2 601C471.3 601 428.7 601 385.8 601C343 601 300 601 257.2 601C214.3 601 171.7 601 128.8 601C86 601 43 601 21.5 601L0 601Z" fill="#ffffff" stroke-linecap="round" stroke-linejoin="miter"></path></svg>